<svg width="580" height="400" xmlns="http://www.w3.org/2000/svg">
 <!-- Created with Method Draw - http://github.com/duopixel/Method-Draw/ -->
 <g>
  <title>background</title>
  <rect fill="#fff" id="canvas_background" height="402" width="582" y="-1" x="-1"/>
 </g>
 <g>
  <title>Layer 1</title>
  <ellipse stroke="#ffffff" ry="197.000004" rx="195.499995" id="svg_1" cy="200.000005" cx="289.999994" stroke-width="1.5" fill="#a0bdf2"/>
  <ellipse stroke="null" ry="75.999997" rx="75.500003" id="svg_3" cy="140.437497" cx="290.000003" stroke-width="1.5" fill="#4a75d9"/>
  <ellipse stroke="null" ry="51.999999" rx="116" id="svg_4" cy="286.437501" cx="290" fill-opacity="null" stroke-opacity="null" stroke-width="1.5" fill="#4a75d9"/>
  <path id="svg_12" d="m174.234012,286.723686l1.249877,71.493427l6.249426,4.999541l8.999174,5.749472l9.499128,4.999541l11.998898,5.749472l10.499036,4.499587l10.749013,3.499679l11.248967,3.249702l11.498944,2.249793l12.74883,1.999816l13.248784,0.749931l13.998715,0l14.248692,-0.749931l14.498669,-1.999816l14.248692,-3.249702l11.248967,-3.249702l13.748738,-5.249518l13.248784,-5.999449l12.498853,-6.999357l10.499036,-6.74938l5.999449,-4.499587l-0.249977,-71.493436" stroke-width="1.5" fill="#4a75d9"/>
 </g>
</svg>